# xmcd CD database file
#
# Track frame offsets:
#	150
#	18585
#	35412
#	53055
#	72000
#	86345
#	102860
#	122125
#	141457
#	161402
#	179982
#	197847
#	219115
#	234360
#
# Disc length: 3361 seconds
#
# Revision: 2
# Processed by: cddbd v1.5.2PL0 Copyright (c) Steve Scherf et al.
# Submitted via: CDex 1.70beta2
#
DISCID=c00d1f0e
DTITLE=Various Artist - おニャン子クラブA面コレクション Vol.3
DYEAR=1999
DGENRE=JPop
TTITLE0=福永恵規/ハートのIgnition
TTITLE1=渡辺満里奈/深呼吸して
TTITLE2=渡辺美奈代/雪の帰り道
TTITLE3=河合その子/悲しい夜を止めて
TTITLE4=おニャン子クラブ/恋はくえすちょん
TTITLE5=内海和子/蒼いメモリーズ
TTITLE6=新田恵利/内緒で浪漫映画
TTITLE7=城之内早苗/流氷の手紙
TTITLE8=うしろゆびさされ組/技ありっ!
TTITLE9=国生さゆり/あの夏のバイク
TTITLE10=吉沢秋絵/流星のマリオネット
TTITLE11=高井麻巳子/約束
TTITLE12=渡辺満里奈/ホワイトラビットからのメッセージ
TTITLE13=渡辺美奈代/TOO ADULT
EXTD=YEAR: 1999
EXTT0=
EXTT1=
EXTT2=
EXTT3=
EXTT4=
EXTT5=
EXTT6=
EXTT7=
EXTT8=
EXTT9=
EXTT10=
EXTT11=
EXTT12=
EXTT13=
PLAYORDER=
